/* XPM */
static char * beret_icon_xpm[] = {
"32 32 15 1",
" 	c #FFFFFF",
".	c #808080",
"+	c #C0C0C0",
"@	c #040404",
"#	c #000000",
"$	c #993300",
"%	c #663300",
"&	c #33CC66",
"*	c #339966",
"=	c #0066CC",
"-	c #003399",
";	c #0066FF",
">	c #333399",
",	c #336666",
"'	c #336633",
"  ..........                    ",
"  .   +  + ..                   ",
"  .   +  + . .@@@@@@            ",
"  .++++++++####$$%%@@@@         ",
"  . ..+..+..+ #$%%%%%%@@        ",
"  . ..+..+..+ #$%%%%%%%@@       ",
"  .+++++++++++#%%%%%%%%%@       ",
"  . ..+..+..+ #%%%%%%%%@@       ",
"  . ..+..+..+ #%%%%%%%@@@       ",
"  .+++++++++++#%%%%%%@@&@@      ",
"  . ..+..+..+ #%%%%@@@***@      ",
"  . ..+..+..+ #%%@@@&*@@@@@     ",
"  .+++++++++++#@@@@@@@@=-@@     ",
"  .   +  +  + #@@@=-@@;=->@     ",
"  .   +  +  + #&@;=->@;=->@     ",
"  #############&@;=->@@=>@@     ",
"       @&&&&&&&&@@=>@@@@@@@     ",
"       @&&&&&&&**@@@@*****@     ",
"       @&&&&&&&***********@     ",
"       @&&&&&&***********,@     ",
"       @@&&&&***********,@@     ",
"        @&&************,'@      ",
"        @@&********@@@@'@@      ",
"         @@**********,'@@       ",
"        @@@@@*******,@@@@       ",
"       @@$$$@@@@@@@@@@$$@@@     ",
"       @$$$$%%@@   @$$$$%%@@    ",
"       @$$$$%%%@   @$$$$%%%@    ",
"       @@$$%%%%@   @@$$%%%%@    ",
"        @@@@@@@@    @@@@@@@@    ",
"                                ",
"                                "};
